# Wavefront OBJ exported by MilkShape 3D

mtllib BeanPickup.mtl

v -0.664450 -5.930715 -0.000000
v 2.130198 -4.628972 -3.082952
v 2.834280 -6.140868 0.000000
v 2.130198 -4.628973 3.082952
v -0.664450 -5.930715 -0.000000
v 4.924845 -3.327230 0.000000
v -4.254653 -1.972685 -0.000000
v -3.018727 -1.395392 -3.325615
v -0.003951 0.008474 -4.689718
v -0.003952 0.008474 4.689718
v -3.018728 -1.395392 3.325615
v -4.254653 -1.972685 -0.000000
v 4.247935 1.987091 0.000000
v 3.010824 1.412340 3.325615
v 3.010825 1.412341 -3.325615
v -2.159494 4.597926 -2.982555
v -4.863132 3.338574 -0.000000
v -4.863132 3.338574 -0.000000
v -2.159494 4.597925 2.982555
v 0.544148 5.857278 0.000000
v -2.746639 5.858689 -0.000000
# 21 vertices

vt 0.006361 0.135453
vt 0.500031 0.012478
vt 0.251888 0.135358
vt 0.870284 0.511605
vt 0.993702 0.885145
vt 0.747604 0.885053
vt 0.993702 0.511540
vt 0.993702 0.135453
vt 0.748175 0.135358
vt 0.500032 0.135263
vt 0.376614 0.511345
vt 0.500032 0.511203
vt 0.500032 0.884961
vt 0.623449 0.511345
vt 0.746867 0.511475
vt 0.129779 0.511605
vt 0.006361 0.885145
vt 0.006361 0.511540
vt 0.253197 0.511475
vt 0.252459 0.885053
vt 0.499718 0.987522
# 21 texture coordinates

vn -0.397084 -0.769042 0.500898
vn 0.422225 -0.906491 -0.000000
vn 0.258720 -0.556430 0.789588
vn -0.645007 -0.289986 -0.707017
vn -0.844315 0.222794 -0.487335
vn -0.270811 0.580769 -0.767704
vn -0.842808 -0.381672 -0.379474
vn -0.397084 -0.769042 -0.500898
vn 0.258720 -0.556430 -0.789588
vn 0.974298 -0.225262 0.000000
vn 0.637306 0.306263 0.707138
vn 0.902521 0.430645 0.000000
vn 0.423922 0.905699 0.000000
vn 0.637306 0.306263 -0.707138
vn -0.004397 0.009046 -0.999949
vn -0.645007 -0.289986 0.707017
vn -0.844315 0.222794 0.487335
vn -0.842808 -0.381672 0.379474
vn -0.004397 0.009047 0.999949
vn -0.270811 0.580769 0.767704
vn -0.422229 0.906489 0.000000
# 21 normals

g material_0
usemtl material_0
s 1
f 5/1/1 3/2/2 4/3/3
f 8/4/4 17/5/5 16/6/6
f 7/7/7 17/5/5 8/4/4
f 8/4/4 1/8/8 7/7/7
f 1/8/8 8/4/4 2/9/9
f 2/9/9 3/2/2 1/8/8
f 6/10/10 3/2/2 2/9/9
f 4/3/3 3/2/2 6/10/10
f 6/10/10 14/11/11 4/3/3
f 14/11/11 6/10/10 13/12/12
f 13/12/12 20/13/13 14/11/11
f 15/14/14 20/13/13 13/12/12
f 15/14/14 16/6/6 20/13/13
f 9/15/15 16/6/6 15/14/14
f 8/4/4 16/6/6 9/15/15
f 2/9/9 8/4/4 9/15/15
f 15/14/14 2/9/9 9/15/15
f 2/9/9 15/14/14 6/10/10
f 6/10/10 15/14/14 13/12/12
f 11/16/16 18/17/17 12/18/18
f 5/1/1 11/16/16 12/18/18
f 4/3/3 11/16/16 5/1/1
f 11/16/16 4/3/3 10/19/19
f 4/3/3 14/11/11 10/19/19
f 14/11/11 19/20/20 10/19/19
f 14/11/11 20/13/13 19/20/20
f 20/13/13 21/21/21 19/20/20
f 16/6/6 21/21/21 20/13/13
f 17/5/5 21/21/21 16/6/6
f 10/19/19 19/20/20 11/16/16
f 11/16/16 19/20/20 18/17/17
f 19/20/20 21/21/21 18/17/17
# 32 triangles in group

# 32 triangles total

